<svg width="275" height="70" viewBox="0 0 275 70" fill="none" xmlns="http://www.w3.org/2000/svg">
<path d="M66.5941 33.5455V59H61.2124V33.5455H66.5941ZM76.2172 47.9631V59H70.9225V39.9091H75.9687V43.2773H76.1924C76.615 42.167 77.3234 41.2887 78.3177 40.6424C79.3121 39.9878 80.5177 39.6605 81.9346 39.6605C83.2603 39.6605 84.4162 39.9505 85.4023 40.5305C86.3883 41.1106 87.1547 41.9392 87.7016 43.0163C88.2485 44.0852 88.5219 45.3613 88.5219 46.8445V59H83.2272V47.7891C83.2355 46.6207 82.9372 45.7093 82.3323 45.0547C81.7274 44.3918 80.8947 44.0604 79.8341 44.0604C79.1215 44.0604 78.4917 44.2137 77.9449 44.5202C77.4063 44.8268 76.9837 45.2743 76.6771 45.8626C76.3788 46.4426 76.2255 47.1428 76.2172 47.9631ZM108.579 45.353L103.732 45.6513C103.649 45.237 103.471 44.8641 103.197 44.5327C102.924 44.1929 102.564 43.9237 102.116 43.7248C101.677 43.5176 101.151 43.4141 100.538 43.4141C99.7173 43.4141 99.0255 43.5881 98.462 43.9361C97.8986 44.2758 97.6168 44.7315 97.6168 45.3033C97.6168 45.759 97.7991 46.1443 98.1637 46.4592C98.5283 46.774 99.1539 47.0268 100.04 47.2173L103.496 47.9134C105.352 48.2945 106.736 48.9077 107.647 49.7528C108.558 50.598 109.014 51.7083 109.014 53.0838C109.014 54.335 108.645 55.4329 107.908 56.3775C107.179 57.3221 106.176 58.0595 104.9 58.5898C103.632 59.1119 102.17 59.3729 100.513 59.3729C97.9856 59.3729 95.9721 58.8467 94.4723 57.7944C92.9808 56.7338 92.1067 55.292 91.8498 53.4691L97.0575 53.1957C97.215 53.9663 97.5961 54.5546 98.201 54.9606C98.8059 55.3583 99.5806 55.5572 100.525 55.5572C101.453 55.5572 102.199 55.379 102.762 55.0227C103.334 54.6581 103.624 54.19 103.632 53.6183C103.624 53.1377 103.421 52.7441 103.023 52.4375C102.626 52.1226 102.013 51.8823 101.184 51.7166L97.8778 51.0579C96.0135 50.685 94.6256 50.0387 93.7141 49.119C92.811 48.1992 92.3594 47.0268 92.3594 45.6016C92.3594 44.3752 92.6908 43.3188 93.3537 42.4322C94.0249 41.5456 94.9653 40.862 96.1751 40.3814C97.3931 39.9008 98.8183 39.6605 100.451 39.6605C102.862 39.6605 104.759 40.1701 106.143 41.1893C107.535 42.2085 108.347 43.5964 108.579 45.353ZM122.503 39.9091V43.8864H111.006V39.9091H122.503ZM113.616 35.3352H118.911V53.1335C118.911 53.6224 118.985 54.0036 119.134 54.277C119.284 54.5421 119.491 54.7286 119.756 54.8363C120.029 54.944 120.344 54.9979 120.701 54.9979C120.949 54.9979 121.198 54.9772 121.446 54.9357C121.695 54.886 121.885 54.8487 122.018 54.8239L122.851 58.7638C122.586 58.8467 122.213 58.942 121.732 59.0497C121.252 59.1657 120.667 59.2362 119.98 59.261C118.704 59.3107 117.585 59.1409 116.624 58.7514C115.671 58.362 114.929 57.7571 114.399 56.9368C113.869 56.1165 113.608 55.0807 113.616 53.8295V35.3352ZM131.396 59.3604C130.178 59.3604 129.092 59.1491 128.139 58.7266C127.186 58.2957 126.432 57.6618 125.877 56.8249C125.33 55.9798 125.057 54.9274 125.057 53.668C125.057 52.6074 125.252 51.7166 125.641 50.9957C126.031 50.2749 126.561 49.6948 127.232 49.2557C127.903 48.8165 128.665 48.4851 129.519 48.2614C130.381 48.0376 131.284 47.8802 132.228 47.7891C133.339 47.6731 134.234 47.5653 134.913 47.4659C135.593 47.3582 136.086 47.2008 136.392 46.9936C136.699 46.7865 136.852 46.4799 136.852 46.0739V45.9993C136.852 45.2121 136.603 44.6031 136.106 44.1722C135.617 43.7414 134.921 43.5259 134.018 43.5259C133.065 43.5259 132.307 43.7372 131.744 44.1598C131.18 44.5741 130.807 45.0961 130.625 45.7259L125.728 45.3281C125.977 44.1681 126.466 43.1655 127.195 42.3203C127.924 41.4669 128.864 40.8123 130.016 40.3565C131.176 39.8925 132.518 39.6605 134.043 39.6605C135.104 39.6605 136.119 39.7848 137.088 40.0334C138.066 40.282 138.932 40.6673 139.686 41.1893C140.448 41.7113 141.049 42.3825 141.488 43.2028C141.927 44.0148 142.147 44.9884 142.147 46.1236V59H137.125V56.3526H136.976C136.67 56.9492 136.26 57.4754 135.746 57.9311C135.232 58.3786 134.615 58.7307 133.894 58.9876C133.173 59.2362 132.34 59.3604 131.396 59.3604ZM132.912 55.7063C133.691 55.7063 134.379 55.553 134.975 55.2464C135.572 54.9316 136.04 54.509 136.38 53.9787C136.719 53.4484 136.889 52.8477 136.889 52.1765V50.1506C136.724 50.2583 136.496 50.3577 136.206 50.4489C135.924 50.5317 135.605 50.6104 135.249 50.685C134.892 50.7513 134.536 50.8134 134.18 50.8714C133.823 50.9212 133.5 50.9667 133.21 51.0082C132.589 51.0993 132.046 51.2443 131.582 51.4432C131.118 51.642 130.758 51.9113 130.501 52.2511C130.244 52.5825 130.116 52.9968 130.116 53.494C130.116 54.2148 130.377 54.7659 130.899 55.147C131.429 55.5199 132.1 55.7063 132.912 55.7063ZM168.813 42.457H163.369C163.27 41.7527 163.067 41.1271 162.76 40.5803C162.454 40.0251 162.06 39.5528 161.579 39.1634C161.099 38.7739 160.544 38.4756 159.914 38.2685C159.293 38.0613 158.617 37.9577 157.888 37.9577C156.571 37.9577 155.423 38.285 154.445 38.9396C153.467 39.5859 152.709 40.5305 152.171 41.7734C151.632 43.008 151.363 44.5078 151.363 46.2727C151.363 48.0874 151.632 49.612 152.171 50.8466C152.718 52.0812 153.48 53.0134 154.458 53.6431C155.435 54.2728 156.566 54.5877 157.851 54.5877C158.572 54.5877 159.239 54.4924 159.852 54.3018C160.473 54.1113 161.024 53.8337 161.505 53.4691C161.985 53.0962 162.383 52.6446 162.698 52.1143C163.021 51.584 163.245 50.9792 163.369 50.2997L168.813 50.3246C168.672 51.4929 168.32 52.6198 167.757 53.7053C167.201 54.7824 166.452 55.7478 165.507 56.6012C164.571 57.4464 163.452 58.1175 162.151 58.6147C160.859 59.1036 159.396 59.348 157.764 59.348C155.493 59.348 153.463 58.8343 151.674 57.8068C149.892 56.7794 148.483 55.292 147.448 53.3448C146.42 51.3976 145.907 49.0402 145.907 46.2727C145.907 43.4969 146.429 41.1354 147.473 39.1882C148.517 37.241 149.934 35.7578 151.723 34.7386C153.513 33.7112 155.527 33.1974 157.764 33.1974C159.239 33.1974 160.606 33.4046 161.865 33.8189C163.133 34.2332 164.256 34.8381 165.234 35.6335C166.211 36.4207 167.007 37.386 167.62 38.5295C168.241 39.6729 168.639 40.9821 168.813 42.457ZM177.868 33.5455V59H172.573V33.5455H177.868ZM190.735 59.3729C188.804 59.3729 187.134 58.9627 185.726 58.1424C184.326 57.3138 183.244 56.1621 182.482 54.6871C181.72 53.204 181.338 51.4846 181.338 49.5291C181.338 47.5571 181.72 45.8336 182.482 44.3587C183.244 42.8755 184.326 41.7237 185.726 40.9034C187.134 40.0748 188.804 39.6605 190.735 39.6605C192.665 39.6605 194.331 40.0748 195.731 40.9034C197.14 41.7237 198.225 42.8755 198.988 44.3587C199.75 45.8336 200.131 47.5571 200.131 49.5291C200.131 51.4846 199.75 53.204 198.988 54.6871C198.225 56.1621 197.14 57.3138 195.731 58.1424C194.331 58.9627 192.665 59.3729 190.735 59.3729ZM190.76 55.2713C191.638 55.2713 192.371 55.0227 192.96 54.5256C193.548 54.0201 193.991 53.3324 194.289 52.4624C194.596 51.5923 194.749 50.6022 194.749 49.4918C194.749 48.3815 194.596 47.3913 194.289 46.5213C193.991 45.6513 193.548 44.9635 192.96 44.4581C192.371 43.9527 191.638 43.6999 190.76 43.6999C189.873 43.6999 189.127 43.9527 188.522 44.4581C187.926 44.9635 187.474 45.6513 187.168 46.5213C186.869 47.3913 186.72 48.3815 186.72 49.4918C186.72 50.6022 186.869 51.5923 187.168 52.4624C187.474 53.3324 187.926 54.0201 188.522 54.5256C189.127 55.0227 189.873 55.2713 190.76 55.2713ZM208.869 47.9631V59H203.574V39.9091H208.62V43.2773H208.844C209.266 42.167 209.975 41.2887 210.969 40.6424C211.963 39.9878 213.169 39.6605 214.586 39.6605C215.912 39.6605 217.068 39.9505 218.054 40.5305C219.04 41.1106 219.806 41.9392 220.353 43.0163C220.9 44.0852 221.173 45.3613 221.173 46.8445V59H215.879V47.7891C215.887 46.6207 215.589 45.7093 214.984 45.0547C214.379 44.3918 213.546 44.0604 212.485 44.0604C211.773 44.0604 211.143 44.2137 210.596 44.5202C210.058 44.8268 209.635 45.2743 209.328 45.8626C209.03 46.4426 208.877 47.1428 208.869 47.9631ZM234.047 59.3729C232.083 59.3729 230.392 58.9751 228.976 58.1797C227.567 57.3759 226.482 56.2408 225.719 54.7741C224.957 53.2992 224.576 51.555 224.576 49.5415C224.576 47.5778 224.957 45.8543 225.719 44.3711C226.482 42.8879 227.555 41.732 228.938 40.9034C230.33 40.0748 231.963 39.6605 233.835 39.6605C235.095 39.6605 236.267 39.8635 237.353 40.2695C238.446 40.6673 239.399 41.268 240.211 42.0717C241.032 42.8755 241.67 43.8864 242.125 45.1044C242.581 46.3142 242.809 47.7311 242.809 49.3551V50.8093H226.689V47.5281H237.825C237.825 46.7657 237.659 46.0904 237.328 45.5021C236.996 44.9138 236.537 44.454 235.948 44.1225C235.368 43.7828 234.693 43.6129 233.922 43.6129C233.119 43.6129 232.406 43.7994 231.785 44.1722C231.171 44.5368 230.691 45.0298 230.343 45.6513C229.995 46.2644 229.817 46.948 229.808 47.7021V50.8217C229.808 51.7663 229.982 52.5825 230.33 53.2702C230.687 53.958 231.188 54.4883 231.834 54.8612C232.481 55.234 233.247 55.4205 234.134 55.4205C234.722 55.4205 235.261 55.3376 235.749 55.1719C236.238 55.0062 236.657 54.7576 237.005 54.4261C237.353 54.0947 237.618 53.6887 237.8 53.2081L242.697 53.5312C242.449 54.7079 241.939 55.7353 241.168 56.6136C240.406 57.4837 239.42 58.1631 238.21 58.652C237.009 59.1326 235.621 59.3729 234.047 59.3729Z" fill="white"/>
<path d="M17.55 24.75H36.45C43.65 24.75 49.5 30.6 49.5 37.8V56.7C49.5 60.1611 48.1251 63.4804 45.6777 65.9277C43.2304 68.3751 39.9111 69.75 36.45 69.75H17.55C10.35 69.75 4.5 63.9 4.5 56.7V37.8C4.5 34.3389 5.87491 31.0196 8.32226 28.5723C10.7696 26.1249 14.0889 24.75 17.55 24.75ZM17.1 29.25C14.9517 29.25 12.8915 30.1034 11.3724 31.6224C9.85339 33.1415 9 35.2017 9 37.35V57.15C9 61.6275 12.6225 65.25 17.1 65.25H36.9C39.0483 65.25 41.1085 64.3966 42.6276 62.8776C44.1466 61.3585 45 59.2983 45 57.15V37.35C45 32.8725 41.3775 29.25 36.9 29.25H17.1ZM38.8125 32.625C39.5584 32.625 40.2738 32.9213 40.8012 33.4488C41.3287 33.9762 41.625 34.6916 41.625 35.4375C41.625 36.1834 41.3287 36.8988 40.8012 37.4262C40.2738 37.9537 39.5584 38.25 38.8125 38.25C38.0666 38.25 37.3512 37.9537 36.8238 37.4262C36.2963 36.8988 36 36.1834 36 35.4375C36 34.6916 36.2963 33.9762 36.8238 33.4488C37.3512 32.9213 38.0666 32.625 38.8125 32.625ZM27 36C29.9837 36 32.8452 37.1853 34.955 39.295C37.0647 41.4048 38.25 44.2663 38.25 47.25C38.25 50.2337 37.0647 53.0952 34.955 55.205C32.8452 57.3147 29.9837 58.5 27 58.5C24.0163 58.5 21.1548 57.3147 19.045 55.205C16.9353 53.0952 15.75 50.2337 15.75 47.25C15.75 44.2663 16.9353 41.4048 19.045 39.295C21.1548 37.1853 24.0163 36 27 36ZM27 40.5C25.2098 40.5 23.4929 41.2112 22.227 42.477C20.9612 43.7429 20.25 45.4598 20.25 47.25C20.25 49.0402 20.9612 50.7571 22.227 52.023C23.4929 53.2888 25.2098 54 27 54C28.7902 54 30.5071 53.2888 31.773 52.023C33.0388 50.7571 33.75 49.0402 33.75 47.25C33.75 45.4598 33.0388 43.7429 31.773 42.477C30.5071 41.2112 28.7902 40.5 27 40.5Z" fill="#B20808"/>
</svg>
